{"title":"13 Hours in a Warehouse 2008 DVDRip BigPerm LKRG","uid":5670356,"size":1123954388,"categoryP":"video","categoryS":"movies","magnet":"?xt=urn:btih:35af9d4d28e7173fa7d253c463e10356d4311f9d&amp;dn=13+Hours+in+a+Warehouse+2008+DVDRip+BigPerm+LKRG&amp;tr=udp%3A%2F%2Ftracker.openbittorrent.com%3A80&amp;tr=udp%3A%2F%2Fopen.demonii.com%3A1337&amp;tr=udp%3A%2F%2Ftracker.coppersurfer.tk%3A6969&amp;tr=udp%3A%2F%2Fexodus.desync.com%3A6969","seeders":0,"leechers":1,"uploader":"neon","files":-1,"time":1278319269,"description":" &lt;a href=&quot;http://www.imdb.com/title/tt1065060/&quot; rel=&quot;nofollow&quot; target=&quot;_NEW&quot;&gt;http://www.imdb.com/title/tt1065060/&lt;/a&gt;\n\nencoded by bigperm    &lt;a href=&quot;\nhttp://img441.imageshack.us/img441/5863/547pdk.gif&quot; rel=&quot;nofollow&quot; target=&quot;_NEW&quot;&gt;\nhttp://img441.imageshack.us/img441/5863/547pdk.gif&lt;/a&gt;\n\n\nAs five underworld heavies settle in for an all night stay at an abandoned warehouse and former film studio.\n\n\nPaul Cram...............Craig Teller\nChars Bonin.............Randy Hancock\nCarson Lee..............Steve Johnson\nCody Lyman..............Paul White\nDanny Salmen............Mike Hancock\nMeisha Johnson..........Jennifer Wilkins (as Meisha P.J. Johnson)\nKathryn Vento...........Ghost #1\nRachel Grubb............Ghost #2\nCarly McMenoman.........Ghost #3\nKati Batchelder.........Gallery Owner\nMark Wipple.............Body Guard #1\nTerry Jones.............Body Guard #2\nDaniel Mayer............Mr. Hancock\n &lt;a href=&quot;\nhttp://img18.imageshack.us/slideshow/webplayer.php?id=131bl.png&quot; rel=&quot;nofollow&quot; target=&quot;_NEW&quot;&gt;\nhttp://img18.imageshack.us/slideshow/webplayer.php?id=131bl.png&lt;/a&gt;\n\nGeneral:\n\nFormat : MPEG-4\nFormat profile : Base Media / Version 2\nCodec ID : mp42\nFile size : 1.05 GiB\nDuration : 1h 31mn\nOverall bit rate : 1 634 Kbps\n\nVideo:\n\nID : 1\nFormat : AVC\nFormat/Info : Advanced Video Codec\nFormat profile : &lt;a class=&quot;__cf_email__&quot; href=&quot;/cdn-cgi/l/email-protection&quot; data-cfemail=&quot;9ed3fff7f0ded2adb0ae&quot;&gt;[email&amp;#160;protected]&lt;/a&gt;&lt;script cf-hash='f9e31' type=&quot;text/javascript&quot;&gt;\n/* &lt;![CDATA[ */!function(){try{var t=&quot;currentScript&quot;in document?document.currentScript:function(){for(var t=document.getElementsByTagName(&quot;script&quot;),e=t.length;e--;)if(t[e].getAttribute(&quot;cf-hash&quot;))return t[e]}();if(t&amp;&amp;t.previousSibling){var e,r,n,i,c=t.previousSibling,a=c.getAttribute(&quot;data-cfemail&quot;);if(a){for(e=&quot;&quot;,r=parseInt(a.substr(0,2),16),n=2;a.length-n;n+=2)i=parseInt(a.substr(n,2),16)^r,e+=String.fromCharCode(i);e=document.createTextNode(e),c.parentNode.replaceChild(e,c)}}}catch(u){}}();/* ]]&gt; */&lt;/script&gt;\nFormat settings, CABAC : Yes\nFormat settings, ReFrames : 2 frames\nCodec ID : avc1\nCodec ID/Info : Advanced Video Coding\nDuration : 1h 31mn\nBit rate mode : Variable\nBit rate : 1 477 Kbps\nWidth : 718 pixels\nHeight : 480 pixels\nDisplay aspect ratio : 16:9\nFrame rate mode : Variable\nFrame rate : 29.970 fps\nMinimum frame rate : 14.985 fps\nMaximum frame rate : 29.970 fps\nResolution : 8 bits\nColorimetry : 4:2:0\nScan type : Progressive\nBits/(Pixel*Frame) : 0.143\nStream size : 969 MiB (90%)\nWriting library : x264 core 79\n\nAudio:\n\nID : 2\nFormat : AAC\nFormat/Info : Advanced Audio Codec\nFormat version : Version 4\nFormat profile : LC\nFormat settings, SBR : No\nCodec ID : 40\nDuration : 1h 31mn\nBit rate mode : Variable\nBit rate : 152 Kbps\nMaximum bit rate : 199 Kbps\nChannel(s) : 2 channels\nChannel positions : Front: L R\nSampling rate : 48.0 KHz\nStream size : 99.8 MiB (9%)\nLanguage : English","torrent":{"xt":"urn:btih:35af9d4d28e7173fa7d253c463e10356d4311f9d","amp;dn":"13+Hours+in+a+Warehouse+2008+DVDRip+BigPerm+LKRG","amp;tr":["udp%3A%2F%2Ftracker.openbittorrent.com%3A80","udp%3A%2F%2Fopen.demonii.com%3A1337","udp%3A%2F%2Ftracker.coppersurfer.tk%3A6969","udp%3A%2F%2Fexodus.desync.com%3A6969"],"infoHash":"35af9d4d28e7173fa7d253c463e10356d4311f9d","infoHashBuffer":{"type":"Buffer","data":[53,175,157,77,40,231,23,63,167,210,83,196,99,225,3,86,212,49,31,157]},"announce":[],"urlList":[]}}